<svg xmlns="http://www.w3.org/2000/svg" width="398" height="11"><defs><clipPath id="prefix__a"><path fill="#fff" d="M290 6V5h108v1z"/></clipPath><clipPath id="prefix__b"><path fill="#fff" d="M117.5 0a5.5 5.5 0 110 11 5.5 5.5 0 010-11zm162 0a5.5 5.5 0 110 11 5.5 5.5 0 010-11z"/></clipPath><clipPath id="prefix__c"><path fill="#fff" d="M107 5.5v-.99H0v.99z"/></clipPath></defs><path fill="none" stroke="#bb9c66" stroke-miterlimit="20" stroke-width="6" d="M290 6v0-1 0h108v1z" clip-path="url(&quot;#a&quot;)"/><path fill="none" stroke="#bb9c66" stroke-miterlimit="20" stroke-width="2" d="M117.5 0a5.5 5.5 0 110 11 5.5 5.5 0 010-11zm162 0a5.5 5.5 0 110 11 5.5 5.5 0 010-11z" clip-path="url(&quot;#b&quot;)"/><path fill="none" stroke="#bb9c66" stroke-miterlimit="20" stroke-width="6" d="M107 5.5v0-.99 0H0v.99z" clip-path="url(&quot;#c&quot;)"/></svg>
