<svg xmlns="http://www.w3.org/2000/svg" width="18" height="19" viewBox="0 0 18 19"><defs><mask id="zn7eb" width="2" height="2" x="-1" y="-1"><path fill="#fff" d="M0 0h18v18H0z"/><path d="M9 0c4.97 0 9 3.938 9 8.796 0 4.859-4.03 8.797-9 8.797s-9-3.938-9-8.797C0 3.938 4.03 0 9 0z"/></mask><filter id="zn7ea" width="38" height="39" x="-10" y="-10" filterUnits="userSpaceOnUse"><feOffset dy="1" in="SourceGraphic" result="FeOffset1101Out"/><feGaussianBlur in="FeOffset1101Out" result="FeGaussianBlur1102Out" stdDeviation="0 0"/></filter><clipPath id="zn7ec"><path fill="#fff" d="M9 0c4.97 0 9 3.938 9 8.796 0 4.859-4.03 8.797-9 8.797s-9-3.938-9-8.797C0 3.938 4.03 0 9 0z"/></clipPath><linearGradient id="zn7eg" x1="8.56" x2="9.44" y1="19" y2="3.17" gradientUnits="userSpaceOnUse"><stop offset="0" stop-opacity=".96"/><stop offset=".5" stop-color="#d0d0d0" stop-opacity=".96"/><stop offset="1" stop-color="#9e9e9e" stop-opacity=".96"/></linearGradient><filter id="zn7ee" width="200%" height="200%" x="-50%" y="-50%"><feGaussianBlur in="SourceGraphic" result="FeGaussianBlur1132Out" stdDeviation="6.5 6.5"/></filter><mask id="zn7ef"><path fill="#fff" d="M11.669 4.495c.127.506.14.549.128 1.068-.005.201-.121 1.128-.09 1.412.026.234.086.253.18.446.163.336.108.8.046 1.14-.035.184-.107.448-.217.6-.122.167-.365.168-.472.363-.155.28-.067.673-.165.976-.11.343-.393.367-.414.817l.414.058c.138.29.392.874.651 1.05l.65.175c.761.307 1.606.675 2.368.992.694.289 1.525.391 1.776 1.109 0 .487.046 1.637.033 2.275 0 0 .003 2.024-7.557 2.024-7.56 0-7.557-2.024-7.557-2.024-.013-.638.034-1.788.034-2.275.25-.718 1.081-.82 1.775-1.109.762-.317 1.607-.685 2.367-.992l.65-.175c.26-.176.514-.76.652-1.05l.308-.074c-.07-.383-.31-.413-.41-.684l-.12-1.226c.003.02-.282-.05-.32-.074-.402-.248-.41-1.257-.449-1.676-.017-.191.253-.349.178-.7-.44-2.058.19-3.021 1.188-3.34.693-.277 1.985-.79 3.191-.058l.3.273.484.082c.243.138.398.597.398.597z"/></mask><filter id="zn7eh" width="200%" height="200%" x="-50%" y="-50%"><feGaussianBlur in="SourceGraphic" result="FeGaussianBlur1139Out" stdDeviation="0 0"/></filter><mask id="zn7ei"><path fill="#fff" d="M11.669 4.495c.127.506.14.549.128 1.068-.005.201-.121 1.128-.09 1.412.026.234.086.253.18.446.163.336.108.8.046 1.14-.035.184-.107.448-.217.6-.122.167-.365.168-.472.363-.155.28-.067.673-.165.976-.11.343-.393.367-.414.817l.414.058c.138.29.392.874.651 1.05l.65.175c.761.307 1.606.675 2.368.992.694.289 1.525.391 1.776 1.109 0 .487.046 1.637.033 2.275 0 0 .003 2.024-7.557 2.024-7.56 0-7.557-2.024-7.557-2.024-.013-.638.034-1.788.034-2.275.25-.718 1.081-.82 1.775-1.109.762-.317 1.607-.685 2.367-.992l.65-.175c.26-.176.514-.76.652-1.05l.308-.074c-.07-.383-.31-.413-.41-.684l-.12-1.226c.003.02-.282-.05-.32-.074-.402-.248-.41-1.257-.449-1.676-.017-.191.253-.349.178-.7-.44-2.058.19-3.021 1.188-3.34.693-.277 1.985-.79 3.191-.058l.3.273.484.082c.243.138.398.597.398.597z"/></mask><clipPath id="zn7ed"><path d="M9 0c4.97 0 9 3.938 9 8.796 0 4.859-4.03 8.797-9 8.797s-9-3.938-9-8.797C0 3.938 4.03 0 9 0z"/></clipPath></defs><g><g><g filter="url(#zn7ea)"><path fill="none" d="M9 0c4.97 0 9 3.938 9 8.796 0 4.859-4.03 8.797-9 8.797s-9-3.938-9-8.797C0 3.938 4.03 0 9 0z" mask="url(&quot;#zn7eb&quot;)"/><path fill="#80633b" d="M9 0c4.97 0 9 3.938 9 8.796 0 4.859-4.03 8.797-9 8.797s-9-3.938-9-8.797C0 3.938 4.03 0 9 0z"/></g><path fill="#1c242a" d="M9 0c4.97 0 9 3.938 9 8.796 0 4.859-4.03 8.797-9 8.797s-9-3.938-9-8.797C0 3.938 4.03 0 9 0z"/><path fill="none" stroke="#000" stroke-linecap="round" stroke-linejoin="round" stroke-miterlimit="20" stroke-width="4" d="M9 0c4.97 0 9 3.938 9 8.796 0 4.859-4.03 8.797-9 8.797s-9-3.938-9-8.797C0 3.938 4.03 0 9 0z" clip-path="url(&quot;#zn7ec&quot;)"/></g><g clip-path="url(#zn7ed)"><path fill="#fff" fill-opacity=".24" d="M-12 32v-42h42v42zM11.669 4.495s-.155-.459-.398-.597l-.485-.082-.299-.273c-1.206-.732-2.498-.219-3.19.058-.999.319-1.63 1.282-1.19 3.34.076.351-.194.509-.177.7.039.42.047 1.428.45 1.676.037.023.322.093.32.074l.118 1.226c.1.271.341.3.411.684l-.308.074c-.138.29-.392.874-.651 1.05l-.651.175c-.76.307-1.605.675-2.367.992-.694.289-1.525.391-1.775 1.109 0 .487-.047 1.637-.034 2.275C1.443 16.976 1.44 19 9 19c7.56 0 7.557-2.024 7.557-2.024.013-.638-.033-1.788-.033-2.275-.251-.718-1.082-.82-1.776-1.109-.762-.317-1.607-.685-2.367-.992a458.08 458.08 0 0 0-.65-.175c-.26-.176-.514-.76-.652-1.05l-.414-.058c.02-.45.303-.474.414-.817.098-.303.01-.696.165-.976.107-.195.35-.196.472-.363.11-.152.182-.416.217-.6.062-.34.117-.804-.047-1.14-.093-.193-.153-.212-.179-.446-.031-.284.085-1.211.09-1.412.012-.52 0-.562-.128-1.068z" filter="url(#zn7ee)" mask="url(&quot;#zn7ef&quot;)"/><path fill="#bb9c66" d="M11.669 4.495c.127.506.14.549.128 1.068-.005.201-.121 1.128-.09 1.412.026.234.086.253.18.446.163.336.108.8.046 1.14-.035.184-.107.448-.217.6-.122.167-.365.168-.472.363-.155.28-.067.673-.165.976-.11.343-.393.367-.414.817l.414.058c.138.29.392.874.651 1.05l.65.175c.761.307 1.606.675 2.368.992.694.289 1.525.391 1.776 1.109 0 .487.046 1.637.033 2.275 0 0 .003 2.024-7.557 2.024-7.56 0-7.557-2.024-7.557-2.024-.013-.638.034-1.788.034-2.275.25-.718 1.081-.82 1.775-1.109.762-.317 1.607-.685 2.367-.992l.65-.175c.26-.176.514-.76.652-1.05l.308-.074c-.07-.383-.31-.413-.41-.684l-.12-1.226c.003.02-.282-.05-.32-.074-.402-.248-.41-1.257-.449-1.676-.017-.191.253-.349.178-.7-.44-2.058.19-3.021 1.188-3.34.693-.277 1.985-.79 3.191-.058l.3.273.484.082c.243.138.398.597.398.597z"/><path fill="url(#zn7eg)" d="M11.669 4.495c.127.506.14.549.128 1.068-.005.201-.121 1.128-.09 1.412.026.234.086.253.18.446.163.336.108.8.046 1.14-.035.184-.107.448-.217.6-.122.167-.365.168-.472.363-.155.28-.067.673-.165.976-.11.343-.393.367-.414.817l.414.058c.138.29.392.874.651 1.05l.65.175c.761.307 1.606.675 2.368.992.694.289 1.525.391 1.776 1.109 0 .487.046 1.637.033 2.275 0 0 .003 2.024-7.557 2.024-7.56 0-7.557-2.024-7.557-2.024-.013-.638.034-1.788.034-2.275.25-.718 1.081-.82 1.775-1.109.762-.317 1.607-.685 2.367-.992l.65-.175c.26-.176.514-.76.652-1.05l.308-.074c-.07-.383-.31-.413-.41-.684l-.12-1.226c.003.02-.282-.05-.32-.074-.402-.248-.41-1.257-.449-1.676-.017-.191.253-.349.178-.7-.44-2.058.19-3.021 1.188-3.34.693-.277 1.985-.79 3.191-.058l.3.273.484.082c.243.138.398.597.398.597z"/><path fill="#fff" fill-opacity=".24" d="M-12 32v-42h42v42zM11.669 4.495s-.155-.459-.398-.597l-.485-.082-.299-.273c-1.206-.732-2.498-.219-3.19.058-.999.319-1.63 1.282-1.19 3.34.076.351-.194.509-.177.7.039.42.047 1.428.45 1.676.037.023.322.093.32.074l.118 1.226c.1.271.341.3.411.684l-.308.074c-.138.29-.392.874-.651 1.05l-.651.175c-.76.307-1.605.675-2.367.992-.694.289-1.525.391-1.775 1.109 0 .487-.047 1.637-.034 2.275C1.443 16.976 1.44 19 9 19c7.56 0 7.557-2.024 7.557-2.024.013-.638-.033-1.788-.033-2.275-.251-.718-1.082-.82-1.776-1.109-.762-.317-1.607-.685-2.367-.992a458.08 458.08 0 0 0-.65-.175c-.26-.176-.514-.76-.652-1.05l-.414-.058c.02-.45.303-.474.414-.817.098-.303.01-.696.165-.976.107-.195.35-.196.472-.363.11-.152.182-.416.217-.6.062-.34.117-.804-.047-1.14-.093-.193-.153-.212-.179-.446-.031-.284.085-1.211.09-1.412.012-.52 0-.562-.128-1.068z" filter="url(#zn7ee)" mask="url(&quot;#zn7ef&quot;)"/><path fill="#fff1d8" fill-opacity=".44" d="M1 20V2h16v18zM11.669 5.495s-.155-.459-.398-.597l-.485-.082-.299-.273c-1.206-.732-2.498-.219-3.19.058-.999.319-1.63 1.282-1.19 3.34.076.351-.194.509-.177.7.039.42.047 1.428.45 1.676.037.023.322.093.32.074l.118 1.226c.1.271.341.3.411.684l-.308.074c-.138.29-.392.874-.651 1.05l-.651.175c-.76.307-1.605.675-2.367.992-.694.289-1.525.391-1.775 1.109 0 .487-.047 1.637-.034 2.275C1.443 17.976 1.44 20 9 20c7.56 0 7.557-2.024 7.557-2.024.013-.638-.033-1.788-.033-2.275-.251-.718-1.082-.82-1.776-1.109-.762-.317-1.607-.685-2.367-.992a458.08 458.08 0 0 0-.65-.175c-.26-.176-.514-.76-.652-1.05l-.414-.058c.02-.45.303-.474.414-.817.098-.303.01-.696.165-.976.107-.195.35-.196.472-.363.11-.152.182-.416.217-.6.062-.34.117-.804-.047-1.14-.093-.193-.153-.212-.179-.446-.031-.284.085-1.211.09-1.412.012-.52 0-.562-.128-1.068z" filter="url(#zn7eh)" mask="url(&quot;#zn7ei&quot;)"/></g></g></svg>