<svg xmlns="http://www.w3.org/2000/svg" width="711" height="924"><defs><clipPath id="prefix__a"><path fill="#fff" d="M531 300.007L542.993 312 531 323.994 519.007 312zm-351 0L191.993 312 180 323.994 168.007 312zm351 300L542.993 612 531 623.994 519.007 612zm-351 0L191.993 612 180 623.994 168.007 612zm351 300L542.993 912 531 923.994 519.007 912zm-351 0L191.993 912 180 923.994 168.007 912zm351-900L542.993 12 531 23.994 519.007 12zm-351 0L191.993 12 180 23.994 168.007 12z"/></clipPath><clipPath id="prefix__b"><path fill="#fff" d="M180 37h1v100h-1zm350 0h1v100h-1zM180 186h1v100h-1zm350 0h1v100h-1zM180 337h1v100h-1zm350 0h1v100h-1zM180 487h1v100h-1zm350 0h1v100h-1zM180 637h1v100h-1zm350 0h1v100h-1zM180 787h1v100h-1zm350 0h1v100h-1z"/></clipPath></defs><path fill="none" stroke="#bb9c66" stroke-miterlimit="20" stroke-width="2" d="M531 300.007L542.993 312 531 323.994 519.007 312zm-351 0L191.993 312 180 323.994 168.007 312zm351 300L542.993 612 531 623.994 519.007 612zm-351 0L191.993 612 180 623.994 168.007 612zm351 300L542.993 912 531 923.994 519.007 912zm-351 0L191.993 912 180 923.994 168.007 912zm351-900L542.993 12 531 23.994 519.007 12zm-351 0L191.993 12 180 23.994 168.007 12z" clip-path="url(&quot;#a&quot;)"/><path fill="#bb9c66" d="M181 157a5 5 0 110 10 5 5 0 010-10zm350 0a5 5 0 110 10 5 5 0 010-10zM181 457a5 5 0 110 10 5 5 0 010-10zm350 0a5 5 0 110 10 5 5 0 010-10zM181 757a5 5 0 110 10 5 5 0 010-10zm350 0a5 5 0 110 10 5 5 0 010-10zm175-450a5 5 0 110 10 5 5 0 010-10zm-350 0a5 5 0 110 10 5 5 0 010-10zM5 307a5 5 0 110 10 5 5 0 010-10zm701 300a5 5 0 110 10 5 5 0 010-10zm-350 0a5 5 0 110 10 5 5 0 010-10zM5 607a5 5 0 110 10 5 5 0 010-10z"/><path fill="none" stroke="#bb9c66" stroke-miterlimit="20" stroke-width="2" d="M180 37h1v100h-1zm350 0h1v100h-1zM180 186h1v100h-1zm350 0h1v100h-1zM180 337h1v100h-1zm350 0h1v100h-1zM180 487h1v100h-1zm350 0h1v100h-1zM180 637h1v100h-1zm350 0h1v100h-1zM180 787h1v100h-1zm350 0h1v100h-1z" clip-path="url(&quot;#b&quot;)"/></svg>
